<?xml version="1.0" encoding="utf-8"?>
<!-- Generator: Adobe Illustrator 21.0.2, SVG Export Plug-In . SVG Version: 6.00 Build 0)  -->
<svg version="1.1" id="Layer_1" xmlns="http://www.w3.org/2000/svg" xmlns:xlink="http://www.w3.org/1999/xlink" x="0px" y="0px"
	 viewBox="0 0 540.6 62.9" style="enable-background:new 0 0 540.6 62.9;" xml:space="preserve">
<style type="text/css">
	.st0{opacity:0.7;fill:#F8FBFF;}
	.st1{fill:#FFFFFF;}
	.st2{opacity:0.2;}
	.st3{fill:none;stroke:#F2F0FF;stroke-width:0.75;stroke-miterlimit:10;}
	.st4{opacity:0.9;}
	.st5{opacity:0.99;}
	.st6{opacity:0.96;}
	.st7{opacity:0.98;}
	.st8{opacity:0.95;}
	.st9{fill:#935293;}
	.st10{fill:#A24C62;}
	.st11{fill:#C26756;}
	.st12{fill:#6D3077;}
	.st13{fill:#423D8D;}
</style>
<title>samuelcarreira-logo-color</title>
<g id="_Group_">
	<path id="_Compound_Path_" class="st0" d="M8.9,19.1C3.5,17.6,0.9,15,0.9,11c0-4.7,4.4-7.6,8.9-7.6c3.6,0,6.9,1.3,8.6,4.6l-0.8,0.4
		C16.3,5.9,14,4.2,9.7,4.2c-3.8,0-7.9,2.4-7.9,6.6c0,3.9,2.1,6.1,7.6,7.7c6.8,1.9,9,4.7,9,8.5c0,4.2-4,7-9.5,7
		c-3.6,0.1-6.9-1.6-9-4.4l0.7-0.4c2,2.6,5.1,4.2,8.4,4.1c5,0,8.5-2.6,8.5-6.2C17.5,23.5,15.4,20.8,8.9,19.1z"/>
	<path id="_Compound_Path_2" class="st0" d="M52.3,23H34.9l-5.1,10.5h-1L43.2,3.8H44l14.4,29.7h-1.1L52.3,23z M52,22.3L43.6,4.8
		l-8.3,17.5L52,22.3z"/>
	<path id="_Compound_Path_3" class="st0" d="M103.8,3.8v29.7h-0.9V4.9L87.7,23.2H87L71.7,4.9v28.7h-0.9V3.8h1.1l15.4,18.6l15.3-18.6
		L103.8,3.8z"/>
	<path id="_Compound_Path_4" class="st0" d="M117.6,21.5V3.8h0.9v17.7c0,8,5.5,11.6,13.1,11.6c7.6,0,13-3.6,13-11.6V3.8h0.9v17.7
		c0,8.7-6.3,12.4-14,12.4S117.6,30.3,117.6,21.5z"/>
	<path id="_Compound_Path_5" class="st0" d="M160.2,4.7v17.5h13.1V23h-13.1v9.9h15.3v0.7h-16.3V4H175v0.7L160.2,4.7z"/>
	<path id="_Compound_Path_6" class="st0" d="M189.3,32.8h15.3v0.7h-16.2V3.8h0.9L189.3,32.8z"/>
	<path id="_Compound_Path_7" class="st1" d="M283.9,18.7c0-8.4,8-15.3,18-15.3c7.5,0,11.9,3.1,14.5,6l-0.7,0.5
		c-2.7-3.2-7.1-5.8-13.8-5.8c-9.4,0-17,6.6-17,14.5s7.6,14.5,17,14.5c6,0,11.1-2.6,13.6-5.6l0.6,0.5c-2.2,2.6-7.2,5.8-14.3,5.8
		C291.9,33.9,283.9,27.1,283.9,18.7z"/>
	<path id="_Compound_Path_8" class="st1" d="M349.7,23h-17.4l-5.1,10.5h-1l14.4-29.7h0.8l14.4,29.7h-1.1L349.7,23z M349.3,22.3
		L341,4.8l-8.3,17.5H349.3z"/>
	<path id="_Compound_Path_9" class="st1" d="M378.8,22.3c5.7,0,10.3-3.8,10.3-8.8s-4.6-8.9-10.3-8.9h-9.7v29h-0.9V3.8h10.6
		c6.3,0,11.3,4.3,11.3,9.6s-5,9.6-11.3,9.6l10.3,10.6h-1.3l-10.9-11.3L378.8,22.3z"/>
	<path id="_Compound_Path_10" class="st1" d="M412.2,22.3c5.7,0,10.3-3.8,10.3-8.8s-4.6-8.9-10.3-8.9h-9.6v29h-0.9V3.8h10.6
		c6.3,0,11.3,4.3,11.3,9.6s-5,9.6-11.3,9.6l10.3,10.6h-1.3l-10.9-11.3L412.2,22.3z"/>
	<path id="_Compound_Path_11" class="st1" d="M436,4.7v17.5h13.1V23H436v9.9h15.3v0.7h-16.2V4h15.7v0.7L436,4.7z"/>
	<path id="_Compound_Path_12" class="st1" d="M464.2,33.5V3.8h0.9v29.7H464.2z"/>
	<path id="_Compound_Path_13" class="st1" d="M490.2,22.3c5.7,0,10.3-3.8,10.3-8.8s-4.6-8.9-10.3-8.9h-9.7v29h-0.9V3.8h10.6
		c6.3,0,11.3,4.3,11.3,9.6s-5,9.6-11.3,9.6l10.3,10.6h-1.3l-10.9-11.3L490.2,22.3z"/>
	<path id="_Compound_Path_14" class="st1" d="M534.5,23h-17.4L512,33.5h-1l14.4-29.7h0.8l14.4,29.7h-1.1L534.5,23z M534.1,22.3
		l-8.3-17.5l-8.3,17.5H534.1z"/>
</g>
<g id="_Group_2" class="st2">
	<polygon id="_Path_" class="st3" points="229,10.6 246.6,0.4 264.1,10.6 264.1,30.9 246.6,41 229,30.9 	"/>
	<g id="_Group_3" class="st4">
		<g id="_Group_4">
			<g id="_Group_5">
				<line class="st3" x1="264.1" y1="10.6" x2="250.1" y2="14.6"/>
				<line class="st3" x1="264.1" y1="10.6" x2="264.1" y2="30.9"/>
				<line class="st3" x1="250.1" y1="14.6" x2="264.1" y2="30.9"/>
			</g>
		</g>
	</g>
	<g id="_Group_6">
		<g id="_Group_7">
			<g id="_Group_9">
				<line class="st3" x1="246.6" y1="41" x2="229" y2="10.6"/>
				<line class="st3" x1="229" y1="30.9" x2="246.6" y2="41"/>
				<line class="st3" x1="229" y1="10.6" x2="229" y2="30.9"/>
			</g>
		</g>
	</g>
	<g id="_Group_10" class="st4">
		<g id="_Group_11">
			<g id="_Group_12">
				<line class="st3" x1="264.1" y1="10.6" x2="229" y2="20.7"/>
				<line class="st3" x1="229" y1="20.7" x2="229" y2="30.9"/>
				<line class="st3" x1="229" y1="30.9" x2="264.1" y2="20.7"/>
				<line class="st3" x1="264.1" y1="10.6" x2="264.1" y2="20.7"/>
			</g>
		</g>
	</g>
	<g id="_Group_13" class="st4">
		<g id="_Group_14">
			<g id="_Group_15">
				<line class="st3" x1="264.1" y1="10.6" x2="246.6" y2="0.4"/>
				<line class="st3" x1="246.6" y1="0.4" x2="236" y2="18.7"/>
				<line class="st3" x1="236" y1="18.7" x2="264.1" y2="10.6"/>
			</g>
		</g>
	</g>
	<g id="_Group_16" class="st4">
		<g id="_Group_17">
			<g id="_Group_18">
				<line class="st3" x1="237.8" y1="5.5" x2="239.1" y2="28"/>
				<line class="st3" x1="246.6" y1="0.4" x2="239.1" y2="28"/>
				<line class="st3" x1="246.6" y1="0.4" x2="237.8" y2="5.5"/>
			</g>
		</g>
	</g>
	<g id="_Group_19" class="st4">
		<g id="_Group_20">
			<g id="_Group_21">
				<line class="st3" x1="246.6" y1="0.4" x2="250.1" y2="14.6"/>
				<line class="st3" x1="264.1" y1="10.6" x2="250.1" y2="14.6"/>
				<line class="st3" x1="264.1" y1="10.6" x2="246.6" y2="0.4"/>
			</g>
		</g>
	</g>
	<g id="_Group_22" class="st4">
		<g id="_Group_23">
			<g id="_Group_24">
				<line class="st3" x1="229" y1="30.9" x2="246.6" y2="0.4"/>
				<line class="st3" x1="229" y1="10.6" x2="229" y2="30.9"/>
				<line class="st3" x1="246.6" y1="0.4" x2="229" y2="10.6"/>
			</g>
		</g>
	</g>
	<g id="_Group_25" class="st4">
		<g id="_Group_26">
			<g id="_Group_27">
				<line class="st3" x1="246.6" y1="0.4" x2="229" y2="30.9"/>
				<polyline class="st3" points="252.4,24.1 250.1,14.6 246.6,0.4 				"/>
				<line class="st3" x1="229" y1="30.9" x2="252.4" y2="24.1"/>
			</g>
		</g>
	</g>
	<g id="_Group_28" class="st4">
		<g id="_Group_29">
			<g id="_Group_30">
				<line class="st3" x1="239.1" y1="28" x2="264.1" y2="10.6"/>
				<line class="st3" x1="242.1" y1="16.9" x2="239.1" y2="28"/>
				<line class="st3" x1="264.1" y1="10.6" x2="242.1" y2="16.9"/>
			</g>
		</g>
	</g>
	<g id="_Group_31" class="st5">
		<g id="_Group_32">
			<g id="_Group_33">
				<line class="st3" x1="250.1" y1="14.6" x2="248.5" y2="26.4"/>
				<line class="st3" x1="238.3" y1="18" x2="248.5" y2="26.4"/>
				<line class="st3" x1="250.1" y1="14.6" x2="238.3" y2="18"/>
			</g>
		</g>
	</g>
	<g id="_Group_34" class="st6">
		<g id="_Group_35">
			<g id="_Group_37">
				<line class="st3" x1="229" y1="10.6" x2="246.6" y2="41"/>
				<line class="st3" x1="258.3" y1="34.2" x2="246.6" y2="41"/>
				<line class="st3" x1="258.3" y1="34.2" x2="229" y2="10.6"/>
			</g>
		</g>
	</g>
	<g id="_Group_38" class="st7">
		<g id="_Group_39">
			<g id="_Group_40">
				<line class="st3" x1="250.1" y1="14.6" x2="246.6" y2="41"/>
				<line class="st3" x1="255.4" y1="35.9" x2="250.1" y2="14.6"/>
				<line class="st3" x1="246.6" y1="41" x2="255.4" y2="35.9"/>
			</g>
		</g>
	</g>
	<g id="_Group_41" class="st8">
		<g id="_Group_42">
			<g id="_Group_43">
				<line class="st3" x1="264.1" y1="30.9" x2="250.1" y2="14.6"/>
				<line class="st3" x1="250.1" y1="14.6" x2="255.4" y2="35.9"/>
				<line class="st3" x1="264.1" y1="30.9" x2="255.4" y2="35.9"/>
			</g>
		</g>
	</g>
	<g id="_Group_44" class="st4">
		<g id="_Group_45">
			<g id="_Group_47">
				<line class="st3" x1="229" y1="25.8" x2="239.1" y2="28"/>
				<line class="st3" x1="229" y1="25.8" x2="229" y2="30.9"/>
				<line class="st3" x1="239.1" y1="28" x2="229" y2="30.9"/>
			</g>
		</g>
	</g>
</g>
<g id="_Group_48">
	<rect id="_Path_2" x="324.1" y="53.1" class="st9" width="107.9" height="5"/>
	<rect id="_Path_3" x="216.2" y="53.1" class="st10" width="107.9" height="5"/>
	<rect id="_Path_4" x="108.2" y="53" class="st11" width="107.9" height="5"/>
	<rect id="_Path_5" x="0.3" y="53" class="st12" width="107.9" height="5"/>
	<rect id="_Path_6" x="430.6" y="53.1" class="st13" width="110" height="5"/>
</g>
</svg>
